<?xml version="1.0" standalone="no"?>
<!DOCTYPE svg PUBLIC "-//W3C//DTD SVG 20010904//EN"
 "http://www.w3.org/TR/2001/REC-SVG-20010904/DTD/svg10.dtd">
<svg version="1.0" xmlns="http://www.w3.org/2000/svg"
 width="816.000000pt" height="816.000000pt" viewBox="0 0 816.000000 816.000000"
 preserveAspectRatio="xMidYMid meet">
<metadata>
Created by potrace 1.14, written by Peter Selinger 2001-2017
</metadata>
<g transform="translate(0.000000,816.000000) scale(0.100000,-0.100000)"
fill="#000000" stroke="none">
<path d="M1106 8144 c-58 -22 -109 -66 -142 -126 l-29 -53 0 -750 c0 -647 5
-880 20 -995 1 -14 6 -50 10 -80 3 -30 8 -66 10 -80 2 -14 7 -45 10 -70 3 -25
8 -52 10 -60 2 -8 7 -31 10 -50 3 -19 18 -82 32 -140 14 -58 27 -114 28 -125
8 -48 111 -341 155 -440 77 -175 260 -515 281 -523 5 -2 9 -8 9 -14 0 -6 30
-53 66 -105 76 -110 79 -90 -35 -228 -36 -44 -70 -86 -76 -93 -5 -7 -18 -22
-27 -33 -10 -10 -18 -21 -18 -24 0 -3 -11 -18 -25 -33 -14 -15 -58 -70 -98
-122 -39 -52 -74 -97 -77 -100 -10 -9 -114 -152 -161 -220 -24 -36 -46 -67
-49 -70 -13 -13 -60 -91 -60 -100 0 -5 -4 -10 -9 -10 -5 0 -13 -10 -17 -22 -4
-13 -10 -25 -13 -28 -11 -8 -91 -150 -91 -161 0 -5 -5 -9 -12 -9 -6 0 -8 -3
-5 -7 4 -3 3 -11 -3 -17 -19 -24 -114 -226 -160 -341 -43 -107 -125 -353 -134
-402 -2 -10 -9 -38 -16 -63 -7 -25 -14 -56 -17 -70 -2 -14 -6 -35 -8 -48 -2
-12 -6 -30 -9 -40 -3 -9 -7 -33 -10 -52 -3 -19 -8 -46 -10 -60 -3 -14 -7 -45
-10 -70 -3 -25 -8 -55 -10 -67 -3 -12 -8 -53 -12 -90 -4 -37 -9 -84 -11 -103
-3 -19 -7 -392 -10 -827 -5 -881 -7 -849 61 -929 127 -148 362 -112 440 67
l24 56 2 709 c1 777 2 874 10 874 3 0 5 15 5 33 -1 17 2 53 6 79 4 26 10 71
13 100 13 112 57 318 96 443 17 55 32 107 34 115 5 18 51 140 74 195 33 80
185 375 204 394 10 12 18 23 17 26 -1 7 120 197 131 205 3 3 21 28 40 55 19
28 36 52 40 55 3 3 24 30 45 60 22 30 46 62 53 70 7 8 38 47 68 85 89 113 147
186 191 239 7 8 13 19 13 25 0 5 6 11 14 14 13 5 37 -18 86 -83 14 -18 30 -38
35 -44 6 -6 28 -33 50 -61 22 -27 45 -55 50 -62 6 -7 15 -18 20 -25 21 -26
201 -264 218 -288 196 -280 325 -517 422 -774 42 -115 75 -216 69 -216 -3 0 2
-13 11 -30 9 -16 14 -30 11 -30 -2 0 2 -22 9 -50 7 -27 11 -50 8 -50 -3 0 -1
-6 5 -12 5 -7 13 -35 16 -62 4 -27 9 -52 10 -55 2 -3 7 -26 10 -51 3 -25 8
-56 11 -70 8 -51 25 -216 29 -291 1 -30 6 -61 10 -67 4 -7 2 -12 -4 -12 -6 0
-8 -5 -4 -12 4 -6 8 -331 9 -722 1 -391 5 -724 10 -741 20 -73 94 -146 174
-171 121 -38 250 15 313 130 26 48 26 26 32 1001 2 347 6 648 9 670 3 22 8 63
11 90 9 88 16 139 27 195 6 30 12 70 14 88 2 18 7 42 10 52 3 10 8 29 11 42 3
13 6 28 8 33 2 6 6 28 11 50 4 22 10 45 14 50 3 6 7 18 8 29 6 37 83 252 123
341 21 49 112 233 127 260 43 74 75 129 105 176 l31 51 47 -74 c164 -255 295
-561 366 -857 31 -127 31 -128 58 -291 3 -14 5 -25 6 -25 1 0 3 -17 5 -37 1
-20 6 -68 10 -105 4 -37 10 -88 12 -113 2 -25 6 -380 7 -790 2 -410 7 -758 11
-775 19 -75 72 -142 140 -177 61 -32 199 -30 243 3 75 56 114 113 127 183 9
47 11 309 2 323 -4 6 -4 13 0 17 3 3 6 52 6 109 0 57 -3 108 -6 114 -4 6 -4
13 0 17 8 8 8 210 0 223 -4 6 -4 13 0 17 3 3 6 52 6 109 0 57 -3 108 -6 114
-4 6 -4 13 0 17 8 8 8 210 0 223 -4 6 -4 13 0 16 11 12 11 157 -1 150 -6 -4
-5 1 2 10 8 9 15 45 17 79 6 138 36 356 69 508 19 89 30 126 37 136 5 6 7 13
4 16 -6 6 70 238 101 306 13 29 24 56 24 60 0 5 11 32 25 60 14 29 24 53 24
54 -1 2 8 19 20 38 11 19 27 50 36 69 28 63 251 420 274 441 4 3 39 50 80 105
69 92 212 275 236 301 5 6 21 26 35 44 14 18 32 41 41 51 8 10 24 29 34 43
l19 25 35 -47 c20 -26 44 -56 53 -67 9 -11 67 -83 127 -160 61 -77 114 -145
119 -150 11 -13 126 -172 175 -242 20 -29 37 -57 37 -62 0 -5 4 -11 9 -13 13
-5 115 -181 185 -318 57 -113 127 -276 152 -355 37 -116 74 -240 78 -257 2
-13 9 -41 14 -63 6 -22 13 -53 16 -70 3 -16 7 -40 10 -51 7 -32 23 -141 32
-219 22 -195 26 -351 27 -1065 l2 -675 27 -52 c106 -201 395 -184 479 29 20
52 20 62 16 828 -5 721 -7 818 -22 940 -4 25 -8 63 -11 85 -5 48 -13 100 -19
129 -2 12 -7 37 -9 56 -3 19 -10 58 -16 85 -6 28 -13 61 -16 75 -2 14 -7 33
-10 42 -3 10 -8 30 -10 45 -16 91 -110 376 -166 508 -34 80 -134 285 -175 360
-70 125 -239 387 -255 393 -4 2 -8 8 -8 13 0 9 -183 255 -225 303 -6 6 -26 31
-45 56 -44 57 -43 56 -140 175 -156 192 -145 171 -111 214 30 38 122 176 151
226 110 187 229 418 234 453 1 7 8 18 14 24 7 7 12 19 12 27 0 9 6 28 14 42
11 23 69 184 71 199 0 3 3 10 6 15 4 6 10 24 14 40 12 45 12 45 15 48 1 1 3 9
5 17 2 8 15 62 30 120 32 124 31 120 51 235 8 50 18 104 20 120 3 17 8 47 10
68 2 20 6 56 9 80 7 54 14 142 20 242 7 132 7 1488 -1 1520 -19 80 -70 141
-149 180 -60 28 -161 29 -218 1 -55 -27 -122 -100 -138 -149 -10 -33 -13 -191
-15 -757 -1 -783 -6 -901 -45 -1140 -6 -36 -13 -78 -15 -95 -3 -16 -14 -66
-24 -110 -11 -44 -21 -89 -23 -100 -2 -11 -7 -27 -10 -35 -3 -8 -18 -55 -32
-105 -15 -49 -30 -94 -33 -100 -4 -5 -7 -14 -8 -20 -2 -13 -61 -159 -73 -182
-5 -10 -32 -63 -59 -118 -27 -55 -61 -120 -76 -145 -14 -25 -35 -63 -47 -85
-12 -22 -25 -42 -30 -45 -4 -3 -13 -18 -18 -33 -6 -16 -15 -26 -21 -22 -43 27
-301 529 -325 635 -2 8 -13 42 -25 75 -19 56 -65 218 -76 268 -13 63 -25 125
-29 147 -29 185 -46 327 -48 395 -1 17 -6 33 -12 37 -7 5 -6 8 2 8 12 0 12 17
0 38 -5 7 -3 12 3 12 6 0 8 5 4 11 -4 7 -8 334 -8 728 -1 801 4 746 -74 828
-49 52 -103 76 -179 79 -102 6 -186 -42 -241 -135 -31 -53 -29 2 -35 -1026 -3
-535 -8 -681 -23 -775 -3 -19 -7 -50 -10 -69 -5 -36 -8 -60 -25 -156 -14 -83
-55 -251 -73 -303 -8 -23 -16 -46 -17 -50 -4 -16 -8 -30 -29 -92 -12 -36 -26
-74 -30 -85 -5 -11 -19 -45 -31 -75 -72 -176 -190 -384 -359 -634 -33 -49
-250 -333 -274 -359 -14 -15 -26 -30 -26 -32 0 -5 -23 -33 -77 -94 -18 -20
-33 -39 -33 -43 0 -5 -16 -25 -36 -45 -20 -21 -34 -33 -30 -26 3 6 -4 19 -16
27 -12 9 -19 16 -15 16 5 0 1 7 -7 16 -9 9 -29 32 -44 52 -15 21 -35 46 -45
57 -10 11 -37 45 -60 75 -23 30 -44 57 -48 60 -3 3 -18 23 -34 45 -17 22 -32
42 -35 45 -3 3 -29 37 -57 75 -29 39 -56 75 -61 80 -36 48 -82 117 -82 125 0
6 -4 10 -10 10 -5 0 -10 7 -10 15 0 8 -4 15 -9 15 -5 0 -14 14 -21 30 -7 17
-15 30 -19 30 -3 0 -22 29 -41 65 -19 36 -38 65 -42 65 -5 0 -8 9 -8 19 0 11
-4 21 -8 23 -21 8 -179 358 -216 478 -10 30 -21 64 -26 75 -9 23 -55 194 -64
240 -4 17 -9 41 -12 55 -12 60 -32 181 -39 240 -2 14 -4 25 -5 25 -1 0 -3 25
-5 55 -2 30 -6 82 -10 115 -4 33 -8 400 -9 815 l-3 755 -24 50 c-98 206 -386
203 -481 -5 -20 -44 -20 -61 -21 -807 -1 -420 -4 -763 -7 -763 -3 0 -5 -19 -6
-43 -1 -59 -20 -239 -30 -287 -2 -14 -7 -36 -9 -50 -7 -49 -16 -96 -26 -140
-6 -25 -12 -52 -14 -60 -2 -8 -10 -42 -19 -75 -9 -33 -19 -67 -21 -75 -12 -47
-79 -236 -104 -295 -24 -56 -155 -321 -161 -325 -4 -3 -10 -15 -14 -27 -4 -13
-13 -29 -20 -36 -7 -7 -26 -36 -42 -66 -17 -29 -35 -53 -40 -54 -21 -1 -206
334 -268 488 -16 39 -35 84 -41 100 -21 50 -73 209 -85 256 -6 24 -13 51 -15
59 -4 13 -24 101 -41 180 -3 14 -7 39 -9 57 -2 18 -6 42 -10 53 -4 12 -8 40
-10 63 -2 23 -6 65 -10 92 -4 28 -9 68 -11 90 -7 62 -16 647 -13 845 0 30 0
102 0 160 -1 58 -1 130 0 160 0 30 0 102 0 160 -1 58 0 131 1 163 2 31 1 57
-2 57 -3 0 -4 18 -4 40 4 84 -79 193 -170 223 -55 18 -132 19 -180 1z m4318
-2908 c-14 -38 182 -415 352 -676 16 -25 31 -47 34 -50 3 -3 15 -20 28 -38 26
-37 24 -43 -32 -107 -15 -16 -46 -55 -69 -85 -23 -30 -44 -57 -47 -60 -3 -3
-32 -39 -65 -80 -33 -41 -62 -77 -65 -80 -44 -44 -360 -481 -360 -499 0 -5 -4
-11 -9 -13 -12 -4 -139 -220 -198 -337 -26 -53 -51 -98 -55 -101 -3 -3 -10
-18 -14 -34 -3 -15 -17 -48 -30 -73 -13 -24 -24 -54 -24 -66 0 -30 -13 -11
-40 58 -29 76 -168 347 -215 420 -19 31 -35 58 -35 61 0 2 -5 10 -10 17 -16
18 -141 210 -147 224 -4 11 39 72 119 168 100 121 198 247 198 255 0 6 4 10 8
10 4 0 50 57 102 128 52 70 98 129 102 130 5 2 8 10 8 17 0 7 3 15 8 17 10 4
97 134 176 261 70 114 177 316 216 407 50 121 59 140 64 140 3 0 3 -6 0 -14z
m-2584 -201 c29 -61 77 -151 148 -276 42 -74 47 -84 60 -97 6 -7 12 -17 12
-22 0 -5 6 -15 13 -22 6 -7 48 -66 91 -131 44 -64 85 -122 93 -128 7 -6 13
-17 13 -24 0 -8 4 -15 8 -17 5 -1 32 -34 62 -73 75 -98 193 -249 200 -255 3
-3 33 -39 66 -80 32 -41 67 -84 77 -95 10 -11 26 -32 35 -47 9 -16 20 -28 24
-28 18 0 4 -27 -76 -146 -47 -68 -88 -133 -91 -144 -4 -11 -11 -20 -16 -20 -5
0 -9 -5 -9 -12 0 -6 -6 -19 -14 -27 -20 -24 -138 -253 -187 -365 l-43 -99 -15
34 c-28 65 -171 354 -197 399 -56 97 -239 378 -253 390 -3 3 -10 12 -16 22
-19 31 -185 246 -200 258 -8 7 -15 19 -15 26 0 8 -3 14 -8 14 -4 0 -28 27 -52
60 -25 33 -48 60 -52 60 -5 0 -8 7 -8 15 0 8 -4 15 -8 15 -4 0 -26 24 -47 52
-22 29 -50 64 -61 78 -12 14 -33 38 -47 55 l-24 29 41 59 c22 32 46 66 51 75
6 9 31 49 58 89 26 40 47 77 47 82 0 6 4 11 9 11 5 0 14 12 20 28 6 15 21 45
34 67 49 83 77 138 77 148 0 6 6 18 13 26 8 9 24 41 37 71 12 30 31 75 42 100
l19 45 28 -65 c15 -36 43 -96 61 -135z"/>
</g>
</svg>
